<svg 
          width="20.800800323486328" 
          height="16.903202056884766" fill="none" 
          xmlns="http://www.w3.org/2000/svg">
          <path d="M 20.800800323486328 2.0008000323243005 C 20.035200281672456 2.3408000572072147 19.212800921369027 2.5696001855038033 18.349600892760016 2.6728001847258738 C 19.23120092356979 2.1448001399133374 19.907200399047944 1.3088003749306782 20.225600412252216 0.312000288740584 C 19.401600404917424 0.8008003119473706 18.487999926614346 1.156000010692146 17.515199922214144 1.3480000150666842 C 16.736799901674566 0.5184000249242757 15.628000165036967 0 14.40080008874475 0 C 12.043999922955459 0 10.133600988139046 1.9112006096400225 10.133600988139046 4.2672006625741945 C 10.133600988139046 4.601600687776553 10.172000614372005 4.928000052675169 10.244000619873871 5.23920006557702 C 6.697600419607262 5.061600055272084 3.553600155517264 3.362400015961373 1.4480001027013483 0.7799999589119725 C 1.0816000858291652 1.4103999774473652 0.8712001166404797 2.143200112756768 0.8712001166404797 2.926400125981879 C 0.8712001166404797 4.406400211856345 1.6240000366774907 5.712800379159156 2.7688000740892535 6.477600390027889 C 2.069600038144053 6.455200388325433 1.411200002932391 6.2632005180613515 0.8359999963308419 5.9440005124278095 C 0.8359999963308419 5.962400513294071 0.8359999963308419 5.9792000623206505 0.8359999963308419 5.997600063186912 C 0.8359999963308419 8.065600187045318 2.306400002197532 9.790400637019276 4.259200061616024 10.181600648763618 C 3.901600050979392 10.279200654265598 3.523999915631527 10.331200875242505 3.134399910496907 10.331200875242505 C 2.8599999046285287 10.331200875242505 2.5920000550160163 10.303999898000631 2.3320000550163833 10.25519989524964 C 2.875200090961804 11.950399938194506 4.4512002670225375 13.184799202336572 6.318400424009372 13.219199205057494 C 4.858400332311976 14.363999252151316 3.0184002076033103 15.046399604912448 1.0184001342465676 15.046399604912448 C 0.6744001159071618 15.046399604912448 0.3344000223741956 15.02640204601214 0 14.986402043610662 C 1.8888001181062348 16.196802107398305 4.13120017899151 16.903202056884766 6.541600276556331 16.903202056884766 C 14.391200784193446 16.903202056884766 18.682399672056377 10.400800029995246 18.682399672056377 4.7615999463639085 C 18.682399672056377 4.576799933063707 18.678400160012117 4.392800267127815 18.670400159897504 4.209600257142323 C 19.504800176769027 3.607200213167851 20.228800323487135 2.8560000755020702 20.800800323486328 2.0008000323243005 Z" fill="rgb(255,255,255)"/>
        </svg>